<?xml version="1.0" encoding="utf-8"?>
<svg viewBox="72 5 223 49" preserveAspectRatio="xMidYMin" xmlns="http://www.w3.org/2000/svg">
  <path class="st0" d="M 91.17 10.945 L 76.948 10.945 L 76.948 26.799 L 86.507 35.193 L 86.507 19.805 L 91.636 19.805 C 94.9 19.805 96.532 21.437 96.532 23.768 L 96.532 35.426 C 96.532 37.758 95.134 39.623 91.636 39.623 L 76.948 39.623 L 76.948 48.483 L 91.17 48.483 C 98.864 48.483 106.091 44.752 106.091 36.126 L 106.091 23.535 C 106.091 14.675 98.864 10.945 91.17 10.945 Z M 166.246 36.126 L 166.246 23.069 C 166.246 18.406 174.872 17.24 177.437 21.903 L 185.365 18.872 C 182.334 12.11 176.505 10.245 171.842 10.245 C 164.148 10.245 156.686 14.675 156.686 23.069 L 156.686 36.126 C 156.686 44.752 164.148 48.949 171.842 48.949 C 176.738 48.949 182.334 46.617 185.598 40.555 L 176.971 36.825 C 174.872 41.954 166.246 40.788 166.246 36.126 Z M 140.132 24.934 C 137.102 24.235 135.236 23.302 135.003 21.437 C 135.236 17.007 141.998 17.007 145.962 21.203 L 152.257 16.54 C 148.293 11.878 143.864 10.478 139.2 10.478 C 132.206 10.478 125.444 14.442 125.444 21.67 C 125.444 28.897 131.04 32.629 137.335 33.561 C 140.365 34.027 143.864 35.193 143.864 37.291 C 143.629 41.255 135.236 41.022 131.272 36.592 L 125.211 42.188 C 128.708 46.617 133.605 48.949 138.267 48.949 C 145.262 48.949 152.956 44.986 153.422 37.758 C 153.656 28.431 146.894 26.1 140.132 24.934 Z M 111.221 48.483 L 121.013 48.483 L 121.013 10.945 L 111.455 10.945 L 111.455 48.483 Z M 273.963 10.945 L 259.741 10.945 L 259.741 26.799 L 269.3 35.193 L 269.3 19.805 L 274.43 19.805 C 277.694 19.805 279.326 21.437 279.326 23.768 L 279.326 35.426 C 279.326 37.758 277.927 39.623 274.43 39.623 L 259.741 39.623 L 259.741 48.483 L 273.963 48.483 C 281.658 48.483 288.885 44.752 288.885 36.126 L 288.885 23.535 C 288.885 14.675 281.658 10.945 273.963 10.945 Z M 203.784 10.478 C 195.857 10.478 187.929 14.675 187.929 23.302 L 187.929 36.126 C 187.929 44.752 195.857 48.949 203.784 48.949 C 211.711 48.949 219.638 44.752 219.638 36.126 L 219.638 23.302 C 219.638 14.675 211.711 10.478 203.784 10.478 Z M 210.079 36.126 C 210.079 38.924 207.048 40.322 204.016 40.322 C 200.986 40.322 197.722 38.924 197.722 36.126 L 197.722 23.302 C 197.722 20.504 200.752 19.105 203.784 19.105 C 206.815 19.105 210.079 20.504 210.079 23.302 L 210.079 36.126 Z M 254.379 23.302 C 254.145 14.442 248.083 10.945 240.156 10.945 L 224.767 10.945 L 224.767 48.483 L 234.56 48.483 L 234.56 36.592 L 236.192 36.592 L 245.052 48.483 L 257.176 48.483 L 246.684 35.66 C 251.581 34.26 254.379 30.296 254.379 23.302 Z M 240.389 28.431 L 234.794 28.431 L 234.794 19.805 L 240.389 19.805 C 246.452 19.805 246.452 28.431 240.389 28.431 Z" style="fill: rgb(114, 137, 218);"/>
</svg>